<svg width="45" height="45" viewBox="0 0 45 45" fill="none" xmlns="http://www.w3.org/2000/svg">
<path d="M28.7746 18.1208C30.8002 19.574 33.2817 20.429 35.9619 20.429V15.2532C35.4547 15.2533 34.9487 15.2002 34.4525 15.0947V19.1688C31.7726 19.1688 29.2914 18.3138 27.2652 16.8607V27.423C27.2652 32.7068 22.997 36.9899 17.7323 36.9899C15.768 36.9899 13.9421 36.3939 12.4254 35.3717C14.1565 37.148 16.5706 38.25 19.2414 38.25C24.5064 38.25 28.7748 33.9669 28.7748 28.6829V18.1208H28.7746ZM30.6366 12.8991C29.6013 11.764 28.9216 10.2973 28.7746 8.67567V8.00995H27.3442C27.7042 10.071 28.9323 11.8318 30.6366 12.8991ZM15.7554 31.3171C15.177 30.556 14.8644 29.625 14.8658 28.6677C14.8658 26.2511 16.818 24.2917 19.2265 24.2917C19.6754 24.2916 20.1216 24.3606 20.5493 24.4968V19.2053C20.0494 19.1366 19.5449 19.1074 19.0406 19.1181V23.2367C18.6125 23.1005 18.1661 23.0313 17.7172 23.0317C15.3086 23.0317 13.3565 24.9909 13.3565 27.4079C13.3565 29.1168 14.3323 30.5964 15.7554 31.3171Z" fill="#FF004F"/>
<path d="M27.2651 16.8606C29.2913 18.3137 31.7725 19.1687 34.4524 19.1687V15.0946C32.9565 14.7748 31.6322 13.9903 30.6365 12.8991C28.9321 11.8317 27.7042 10.0709 27.3442 8.00995H23.587V28.6827C23.5785 31.0927 21.6296 33.0441 19.2263 33.0441C17.81 33.0441 16.5518 32.3666 15.755 31.3171C14.3321 30.5964 13.3563 29.1167 13.3563 27.408C13.3563 24.9913 15.3084 23.0318 17.7169 23.0318C18.1784 23.0318 18.6231 23.1039 19.0403 23.2368V19.1182C13.8681 19.2254 9.7084 23.4666 9.7084 28.6828C9.7084 31.2866 10.7443 33.6471 12.4255 35.3718C13.9422 36.3939 15.768 36.99 17.7324 36.99C22.9972 36.99 27.2652 32.7067 27.2652 27.423V16.8606H27.2651Z" fill="white"/>
<path d="M34.4525 15.0946V13.993C33.1035 13.9951 31.781 13.6159 30.6365 12.899C31.6497 14.0121 32.9838 14.7797 34.4525 15.0946ZM27.3442 8.00998C27.3098 7.81301 27.2835 7.61474 27.2652 7.41572V6.75H22.0775V27.4229C22.0693 29.8326 20.1205 31.784 17.7169 31.784C17.0113 31.784 16.345 31.6159 15.755 31.3172C16.5519 32.3666 17.8101 33.044 19.2263 33.044C21.6294 33.044 23.5786 31.0928 23.587 28.6828V8.00998H27.3442ZM19.0406 19.1182V17.9455C18.6071 17.886 18.1701 17.8562 17.7325 17.8564C12.4673 17.8563 8.19916 22.1396 8.19916 27.4229C8.19916 30.7353 9.87661 33.6545 12.4256 35.3716C10.7444 33.647 9.70854 31.2864 9.70854 28.6827C9.70854 23.4667 13.8681 19.2255 19.0406 19.1182Z" fill="#00F2EA"/>
</svg>
