<svg width="27" height="27" viewBox="0 0 27 27" fill="none" xmlns="http://www.w3.org/2000/svg">
<path fill-rule="evenodd" clip-rule="evenodd" d="M2.99967 0H24.333C25.8058 0 26.9996 1.19381 26.9996 2.66666V24C26.9996 25.4728 25.8058 26.6666 24.333 26.6666H2.99967C1.52682 26.6666 0.333008 25.4728 0.333008 24V2.66666C0.333008 1.19381 1.52682 0 2.99967 0Z" fill="#010101"/>
<path fill-rule="evenodd" clip-rule="evenodd" d="M17.5237 11.5264C18.6911 12.3605 20.1213 12.8512 21.6658 12.8512V9.88047C21.3735 9.88059 21.0819 9.85009 20.7959 9.78949V12.1279C19.2515 12.1279 17.8215 11.6372 16.6539 10.8031V16.8655C16.6539 19.8983 14.1941 22.3566 11.16 22.3566C10.028 22.3566 8.97569 22.0145 8.10156 21.4279C9.09921 22.4474 10.4905 23.0799 12.0297 23.0799C15.064 23.0799 17.5238 20.6216 17.5238 17.5887L17.5237 11.5264ZM18.5968 8.52933C18.0002 7.87791 17.6085 7.036 17.5237 6.10522V5.72314H16.6994C16.9069 6.90608 17.6146 7.91674 18.5968 8.52933ZM10.0206 19.1007C9.68732 18.6639 9.50716 18.1295 9.50796 17.5801C9.50796 16.193 10.6331 15.0684 12.0211 15.0684C12.2798 15.0682 12.5369 15.1079 12.7835 15.1861V12.1489C12.4954 12.1095 12.2046 12.0928 11.9139 12.0989V14.4629C11.6673 14.3847 11.41 14.345 11.1513 14.3452C9.76321 14.3452 8.6382 15.4698 8.6382 16.857C8.6382 17.8378 9.20055 18.6871 10.0206 19.1007Z" fill="#EE1D52"/>
<path fill-rule="evenodd" clip-rule="evenodd" d="M16.6543 10.8031C17.822 11.6372 19.252 12.1279 20.7964 12.1279V9.78948C19.9343 9.60602 19.1711 9.15567 18.5972 8.52933C17.6151 7.91674 16.9073 6.90608 16.6999 5.72314H14.5346V17.5886C14.5297 18.9719 13.4065 20.0919 12.0215 20.0919C11.2052 20.0919 10.4801 19.7031 10.0209 19.1007C9.20088 18.6871 8.63853 17.8378 8.63853 16.857C8.63853 15.4698 9.76354 14.3452 11.1516 14.3452C11.4175 14.3452 11.6738 14.3866 11.9143 14.4629V12.0989C8.93346 12.1605 6.53613 14.5948 6.53613 17.5887C6.53613 19.0832 7.13315 20.4381 8.102 21.428C8.97613 22.0146 10.0284 22.3567 11.1604 22.3567C14.1946 22.3567 16.6543 19.8983 16.6543 16.8656V10.8031Z" fill="white"/>
<path fill-rule="evenodd" clip-rule="evenodd" d="M20.796 9.78954V9.15722C20.0186 9.15839 19.2565 8.94079 18.5969 8.52927C19.1807 9.16818 19.9496 9.60879 20.796 9.78954ZM16.6995 5.7232C16.6797 5.61016 16.6645 5.49636 16.6539 5.38208V5H13.6643V16.8656C13.6595 18.2487 12.5364 19.3687 11.1512 19.3687C10.7445 19.3687 10.3606 19.2723 10.0206 19.1008C10.4798 19.7031 11.2049 20.0919 12.0211 20.0919C13.4061 20.0919 14.5294 18.9719 14.5343 17.5887V5.7232H16.6995ZM11.914 12.099V11.4258C11.6642 11.3916 11.4123 11.3746 11.1602 11.3747C8.12575 11.3747 5.66602 13.8332 5.66602 16.8656C5.66602 18.7668 6.63273 20.4423 8.10174 21.4279C7.13289 20.4381 6.53588 19.0832 6.53588 17.5887C6.53588 14.5949 8.9331 12.1605 11.914 12.099Z" fill="#69C9D0"/>
</svg>
