<svg width="104" height="15" viewBox="0 0 104 15" fill="none" xmlns="http://www.w3.org/2000/svg">
<g clip-path="url(#clip0_1_1446)">
<path fill-rule="evenodd" clip-rule="evenodd" d="M0 0.0395312H10.9826L9.97398 3.17017H7.12546V14.0848V14.74H3.57526V3.17017H0.417671H0V0.0416134V0.0395312ZM28.9717 0.0395312H40.2071L39.2005 3.17017H36.0972V14.0848V14.7463H32.547V3.17017H29.3915H28.9738V0.0416134L28.9717 0.0395312ZM11.6509 5.03192V4.71157H15.1719V5.03192V13.8102L15.1614 14.7338H11.6739V14.2366L11.6509 5.03192ZM16.569 0.688541V-0.00415039H20.0482V0.597013V6.8375L23.565 3.43019H27.7751L23.3666 7.69245L28.3055 14.7317H24.4337L21.1279 9.8683L20.0837 10.8772V14.7546H16.5794V14.4239L16.5669 0.694781L16.569 0.688541ZM53.8357 0.688541V-0.00415039H57.317V0.597013V6.8375L60.8337 3.43019H65.0313L60.6228 7.69245L65.5743 14.738H61.69L58.3945 9.8683L57.3504 10.8772V14.7546H53.8461V14.4239L53.8357 0.688541ZM48.55 9.51259C48.7411 8.83165 48.6769 8.10474 48.3695 7.46745C48.0621 6.83017 47.5325 6.32604 46.8794 6.04912C46.5602 5.91487 46.219 5.84012 45.8728 5.82862H45.7349C45.4699 5.82906 45.206 5.86332 44.9497 5.93055C44.7041 5.99598 44.4682 6.09319 44.248 6.21969C44.0312 6.34162 43.8323 6.49283 43.657 6.66901C43.4813 6.84357 43.329 7.04004 43.2039 7.25353C42.9398 7.70259 42.802 8.21419 42.805 8.73461C42.805 9.25397 42.9426 9.76414 43.2039 10.2136C43.3298 10.4284 43.4827 10.6262 43.6591 10.8023C44.0921 11.2331 44.6517 11.5151 45.2567 11.6073C45.4163 11.6325 45.5776 11.645 45.7391 11.6448H45.8519C46.471 11.6251 47.0673 11.4079 47.5531 11.0252C48.0389 10.6424 48.3883 10.1144 48.55 9.51883V9.51259ZM51.2795 6.37154C51.5983 7.11634 51.759 7.91875 51.7515 8.72837C51.7571 9.79816 51.4744 10.8498 50.9329 11.7737C50.415 12.6608 49.6745 13.3984 48.7839 13.9142C48.1903 14.2555 47.5427 14.494 46.8689 14.6194L46.752 14.6402C46.5738 14.6693 46.3942 14.6901 46.2132 14.7026C46.0962 14.7026 45.9772 14.7151 45.8582 14.7192H45.6326C45.4238 14.7192 45.2149 14.7005 45.0061 14.6776L44.9184 14.6651C44.8599 14.6651 44.8014 14.6506 44.7451 14.6402L44.6427 14.6235L44.4736 14.5903L44.3859 14.5715C43.4661 14.3557 42.6098 13.9284 41.8855 13.3239C41.1611 12.7194 40.5889 11.9545 40.2144 11.0903C39.84 10.226 39.6738 9.28656 39.7291 8.34692C39.7844 7.40728 40.0596 6.49356 40.5328 5.67885C40.7922 5.23953 41.1066 4.83483 41.4684 4.47444C41.8301 4.11306 42.2389 3.80171 42.6839 3.54876C43.239 3.23196 43.8409 3.0045 44.4673 2.87479L44.5801 2.85399C44.9175 2.78967 45.2599 2.75418 45.6034 2.7479H45.902C46.2016 2.75558 46.5002 2.78408 46.7958 2.83319H46.8125C46.9859 2.86231 47.1592 2.89975 47.3284 2.94344C47.3432 2.94663 47.3579 2.9508 47.3722 2.95592C47.411 2.96509 47.4494 2.97619 47.4871 2.9892C47.5971 3.01971 47.7057 3.05507 47.8129 3.09529C47.9068 3.12649 47.9987 3.16394 48.0906 3.20138C48.8039 3.49625 49.4523 3.92731 49.9994 4.47027C50.5464 5.01459 50.9831 5.65868 51.2858 6.36739L51.2795 6.37154ZM15.1865 1.79519C15.1865 2.26413 14.9995 2.71386 14.6666 3.04545C14.3337 3.37704 13.8822 3.56333 13.4114 3.56333C12.9406 3.56333 12.4891 3.37704 12.1562 3.04545C11.8233 2.71386 11.6363 2.26413 11.6363 1.79519C11.6363 1.32625 11.8233 0.876517 12.1562 0.544927C12.4891 0.213336 12.9406 0.0270508 13.4114 0.0270508C13.8822 0.0270508 14.3337 0.213336 14.6666 0.544927C14.9995 0.876517 15.1865 1.32625 15.1865 1.79519Z" fill="black"/>
<path fill-rule="evenodd" clip-rule="evenodd" d="M52.2089 6.37585C51.9063 5.66714 51.4695 5.02306 50.9225 4.47874C50.3631 3.92578 49.6995 3.4884 48.9698 3.19175C48.2401 2.89509 47.4587 2.74501 46.6706 2.75013H45.8875C46.1871 2.75781 46.4857 2.78631 46.7813 2.83541H46.798C46.9714 2.86454 47.1447 2.90198 47.3138 2.94566C47.3287 2.94886 47.3434 2.95303 47.3577 2.95814C47.3965 2.96731 47.4349 2.97842 47.4726 2.99143C47.5825 3.02194 47.6911 3.0573 47.7983 3.09752L47.8735 3.12455C48.6662 3.41784 49.3863 3.87756 49.9848 4.4725C50.5319 5.01682 50.9686 5.6609 51.2713 6.36961C51.59 7.11441 51.7507 7.91682 51.7432 8.72643C51.7477 9.2701 51.6775 9.81181 51.5344 10.3365C51.3954 10.8389 51.1919 11.3213 50.9288 11.7718C50.411 12.6588 49.6704 13.3965 48.7799 13.9123C48.2587 14.2126 47.6957 14.4342 47.1092 14.5696L47.0173 14.5883C46.6366 14.6676 46.2492 14.7108 45.8604 14.7173H46.6957C47.7618 14.7212 48.8097 14.4426 49.7322 13.9102C50.6227 13.3944 51.3632 12.6568 51.8811 11.7697C52.422 10.8455 52.7053 9.79415 52.7018 8.72435C52.7005 7.91619 52.5327 7.11688 52.2089 6.37585Z" fill="#FF004F"/>
<path fill-rule="evenodd" clip-rule="evenodd" d="M44.9997 14.6817L44.912 14.6693C44.7617 14.6498 44.6134 14.6249 44.4672 14.5944L44.3795 14.5757C43.0501 14.2754 41.863 13.5331 41.0138 12.471C40.1646 11.4088 39.704 10.0903 39.7079 8.73248C39.7019 7.94289 39.8539 7.16004 40.1551 6.42965C40.4563 5.69926 40.9006 5.03597 41.4621 4.47854C41.8238 4.11716 42.2326 3.80583 42.6775 3.55288C43.5688 3.04498 44.5745 2.76951 45.6012 2.75201H44.816C43.7417 2.74733 42.6852 3.02425 41.7524 3.55495C41.3074 3.8079 40.8986 4.11925 40.5369 4.48063C40.174 4.84004 39.8595 5.2449 39.6014 5.68504C39.0604 6.61025 38.7754 7.66179 38.7754 8.73248C38.7754 9.80316 39.0604 10.8547 39.6014 11.7799C40.3898 13.1299 41.6827 14.1141 43.1975 14.5174C43.7569 14.6674 44.3349 14.7375 44.9141 14.7254H45.6325C45.4237 14.7254 45.2148 14.7088 45.006 14.6838" fill="#00F2EA"/>
<path d="M72.2158 14.6299L77.4179 3.11621H79.5313L84.7522 14.6299H82.5031L78.0277 4.25198H78.886L74.4274 14.6299H72.2158ZM74.6091 11.9652L75.1813 10.2844H81.4234L82.0018 11.9611L74.6091 11.9652Z" fill="black"/>
<path d="M89.6684 14.7443C88.8662 14.758 88.0744 14.563 87.3712 14.1784C86.7057 13.8101 86.1545 13.2669 85.7777 12.6079C85.3976 11.8756 85.1992 11.0631 85.1992 10.2386C85.1992 9.41416 85.3976 8.6017 85.7777 7.86932C86.153 7.21139 86.7048 6.67047 87.3712 6.30712C88.0757 5.92647 88.867 5.73371 89.6684 5.74756C90.3601 5.73613 91.043 5.90386 91.6502 6.23431C92.2503 6.57458 92.7335 7.08709 93.0369 7.70499C93.3773 8.3644 93.5485 9.20687 93.5485 10.2386C93.5795 11.107 93.4102 11.9709 93.0536 12.7639C92.7601 13.3874 92.282 13.9065 91.6836 14.2513C91.0666 14.5882 90.3718 14.7581 89.6684 14.7443ZM89.9169 12.9844C90.3809 12.9929 90.839 12.8796 91.2451 12.6558C91.6413 12.431 91.9673 12.1012 92.1869 11.7031C92.4202 11.2484 92.5419 10.7451 92.5419 10.2345C92.5419 9.72385 92.4202 9.22052 92.1869 8.76587C91.9652 8.37145 91.6396 8.04488 91.2451 7.82148C90.8355 7.60563 90.3792 7.4928 89.9158 7.4928C89.4525 7.4928 88.9961 7.60563 88.5866 7.82148C88.1923 8.04441 87.8671 8.37114 87.6468 8.76587C87.4135 9.22052 87.2918 9.72385 87.2918 10.2345C87.2918 10.7451 87.4135 11.2484 87.6468 11.7031C87.865 12.1015 88.1905 12.4314 88.5866 12.6558C88.993 12.881 89.4518 12.9958 89.9169 12.9886V12.9844ZM92.592 14.6299V12.5497L92.6735 10.2137L92.5148 7.88596V2.42554H94.5635V14.6299H92.592Z" fill="black"/>
<path d="M100.004 14.7442C99.2871 14.7471 98.573 14.6505 97.8826 14.4572C97.3114 14.3128 96.7675 14.0767 96.2725 13.7582L97.0639 12.196C97.9915 12.7545 99.0522 13.0554 100.136 13.0676C100.785 13.0676 101.255 12.9796 101.548 12.8034C101.679 12.7369 101.789 12.6357 101.866 12.5109C101.943 12.3862 101.984 12.2427 101.984 12.0962C101.989 11.9866 101.964 11.8778 101.911 11.7811C101.859 11.6845 101.782 11.6037 101.688 11.547C101.449 11.4052 101.186 11.3073 100.913 11.2579C100.594 11.1941 100.239 11.1338 99.8477 11.0769C99.4565 11.0201 99.0653 10.9459 98.6741 10.8543C98.3008 10.7673 97.9421 10.6272 97.609 10.4383C97.2937 10.2621 97.0275 10.0104 96.8342 9.70609C96.6197 9.33735 96.516 8.91495 96.5356 8.48919C96.5248 7.96353 96.6942 7.4499 97.0159 7.03308C97.3672 6.59776 97.8327 6.26798 98.3608 6.08037C99.0187 5.84121 99.7156 5.72623 100.416 5.7413C101.021 5.74281 101.625 5.80905 102.216 5.93891C102.744 6.04219 103.252 6.23123 103.72 6.49848L102.926 8.06068C102.536 7.82042 102.109 7.64545 101.663 7.54272C101.251 7.45114 100.831 7.40441 100.409 7.40335C99.783 7.40335 99.318 7.49626 99.0145 7.68209C98.882 7.74837 98.7699 7.84908 98.6901 7.97358C98.6104 8.09807 98.5659 8.24173 98.5613 8.38935C98.5543 8.50538 98.578 8.62122 98.63 8.72526C98.682 8.82931 98.7606 8.9179 98.8578 8.98219C99.0969 9.12989 99.3597 9.23545 99.6347 9.29422C99.9858 9.37753 100.341 9.44073 100.7 9.48351C101.092 9.53298 101.48 9.60732 101.863 9.70609C102.233 9.79803 102.59 9.9335 102.928 10.1096C103.249 10.2744 103.52 10.5214 103.713 10.8252C103.924 11.1914 104.023 11.6105 103.999 12.0317C104.009 12.5506 103.837 13.0566 103.513 13.4629C103.147 13.8958 102.671 14.2222 102.134 14.4073C101.451 14.6465 100.729 14.7607 100.004 14.7442Z" fill="black"/>
</g>
<defs>
<clipPath id="clip0_1_1446">
<rect width="104" height="14.7463" fill="white"/>
</clipPath>
</defs>
</svg>
